<svg width="120" height="85" viewBox="0 0 120 85" fill="none" xmlns="http://www.w3.org/2000/svg">
<path d="M26.688 66.36C27.664 66.568 28.448 67.056 29.04 67.824C29.632 68.576 29.928 69.44 29.928 70.416C29.928 71.824 29.432 72.944 28.44 73.776C27.464 74.592 26.096 75 24.336 75H16.488V58.152H24.072C25.784 58.152 27.12 58.544 28.08 59.328C29.056 60.112 29.544 61.176 29.544 62.52C29.544 63.512 29.28 64.336 28.752 64.992C28.24 65.648 27.552 66.104 26.688 66.36ZM20.592 64.968H23.28C23.952 64.968 24.464 64.824 24.816 64.536C25.184 64.232 25.368 63.792 25.368 63.216C25.368 62.64 25.184 62.2 24.816 61.896C24.464 61.592 23.952 61.44 23.28 61.44H20.592V64.968ZM23.616 71.688C24.304 71.688 24.832 71.536 25.2 71.232C25.584 70.912 25.776 70.456 25.776 69.864C25.776 69.272 25.576 68.808 25.176 68.472C24.792 68.136 24.256 67.968 23.568 67.968H20.592V71.688H23.616ZM45.5323 61.608V75H41.4283V73.176C41.0123 73.768 40.4443 74.248 39.7243 74.616C39.0203 74.968 38.2363 75.144 37.3723 75.144C36.3483 75.144 35.4443 74.92 34.6603 74.472C33.8763 74.008 33.2683 73.344 32.8363 72.48C32.4043 71.616 32.1883 70.6 32.1883 69.432V61.608H36.2683V68.88C36.2683 69.776 36.5003 70.472 36.9643 70.968C37.4283 71.464 38.0523 71.712 38.8363 71.712C39.6363 71.712 40.2683 71.464 40.7323 70.968C41.1963 70.472 41.4283 69.776 41.4283 68.88V61.608H45.5323ZM52.5842 63.84C53.0642 63.104 53.6642 62.528 54.3842 62.112C55.1042 61.68 55.9042 61.464 56.7842 61.464V65.808H55.6562C54.6322 65.808 53.8642 66.032 53.3522 66.48C52.8402 66.912 52.5842 67.68 52.5842 68.784V75H48.4802V61.608H52.5842V63.84ZM63.8338 61.416C64.7778 61.416 65.6018 61.608 66.3058 61.992C67.0258 62.376 67.5778 62.88 67.9618 63.504V61.608H72.0658V74.976C72.0658 76.208 71.8178 77.32 71.3218 78.312C70.8418 79.32 70.0978 80.12 69.0898 80.712C68.0978 81.304 66.8578 81.6 65.3698 81.6C63.3858 81.6 61.7778 81.128 60.5458 80.184C59.3138 79.256 58.6098 77.992 58.4338 76.392H62.4898C62.6178 76.904 62.9218 77.304 63.4018 77.592C63.8818 77.896 64.4738 78.048 65.1778 78.048C66.0258 78.048 66.6978 77.8 67.1938 77.304C67.7058 76.824 67.9618 76.048 67.9618 74.976V73.08C67.5618 73.704 67.0098 74.216 66.3058 74.616C65.6018 75 64.7778 75.192 63.8338 75.192C62.7298 75.192 61.7298 74.912 60.8338 74.352C59.9378 73.776 59.2258 72.968 58.6978 71.928C58.1858 70.872 57.9298 69.656 57.9298 68.28C57.9298 66.904 58.1858 65.696 58.6978 64.656C59.2258 63.616 59.9378 62.816 60.8338 62.256C61.7298 61.696 62.7298 61.416 63.8338 61.416ZM67.9618 68.304C67.9618 67.28 67.6738 66.472 67.0978 65.88C66.5378 65.288 65.8498 64.992 65.0338 64.992C64.2178 64.992 63.5218 65.288 62.9458 65.88C62.3858 66.456 62.1058 67.256 62.1058 68.28C62.1058 69.304 62.3858 70.12 62.9458 70.728C63.5218 71.32 64.2178 71.616 65.0338 71.616C65.8498 71.616 66.5378 71.32 67.0978 70.728C67.6738 70.136 67.9618 69.328 67.9618 68.304ZM88.2589 61.608V75H84.1549V73.176C83.7389 73.768 83.1709 74.248 82.4509 74.616C81.7469 74.968 80.9629 75.144 80.0989 75.144C79.0749 75.144 78.1709 74.92 77.3869 74.472C76.6029 74.008 75.9949 73.344 75.5629 72.48C75.1309 71.616 74.9149 70.6 74.9149 69.432V61.608H78.9949V68.88C78.9949 69.776 79.2269 70.472 79.6909 70.968C80.1549 71.464 80.7789 71.712 81.5629 71.712C82.3629 71.712 82.9949 71.464 83.4589 70.968C83.9229 70.472 84.1549 69.776 84.1549 68.88V61.608H88.2589ZM103.831 68.088C103.831 68.472 103.807 68.872 103.759 69.288H94.4708C94.5348 70.12 94.7988 70.76 95.2628 71.208C95.7428 71.64 96.3268 71.856 97.0148 71.856C98.0388 71.856 98.7508 71.424 99.1508 70.56H103.519C103.295 71.44 102.887 72.232 102.295 72.936C101.719 73.64 100.991 74.192 100.111 74.592C99.2308 74.992 98.2468 75.192 97.1588 75.192C95.8468 75.192 94.6788 74.912 93.6548 74.352C92.6308 73.792 91.8308 72.992 91.2548 71.952C90.6788 70.912 90.3908 69.696 90.3908 68.304C90.3908 66.912 90.6708 65.696 91.2308 64.656C91.8068 63.616 92.6068 62.816 93.6308 62.256C94.6548 61.696 95.8308 61.416 97.1588 61.416C98.4548 61.416 99.6068 61.688 100.615 62.232C101.623 62.776 102.407 63.552 102.967 64.56C103.543 65.568 103.831 66.744 103.831 68.088ZM99.6308 67.008C99.6308 66.304 99.3908 65.744 98.9108 65.328C98.4308 64.912 97.8308 64.704 97.1108 64.704C96.4228 64.704 95.8388 64.904 95.3588 65.304C94.8948 65.704 94.6068 66.272 94.4948 67.008H99.6308ZM110.1 63.84C110.58 63.104 111.18 62.528 111.9 62.112C112.62 61.68 113.42 61.464 114.3 61.464V65.808H113.172C112.148 65.808 111.38 66.032 110.868 66.48C110.356 66.912 110.1 67.68 110.1 68.784V75H105.996V61.608H110.1V63.84Z" fill="#571515"/>
<path d="M7.32 38.584V42.616C7.32 43.912 7.912 44.56 9.096 44.56C10.008 44.56 10.608 44.128 10.896 43.264C10.976 42.992 11.072 42.808 11.184 42.712C11.312 42.616 11.512 42.568 11.784 42.568H16.68C16.824 42.568 16.944 42.624 17.04 42.736C17.152 42.832 17.208 42.952 17.208 43.096C17.208 44.488 16.808 45.656 16.008 46.6C14.536 48.36 12.24 49.24 9.12 49.24C6.672 49.24 4.72 48.704 3.264 47.632C1.808 46.544 1.08 44.88 1.08 42.64V38.56C1.08 36.368 1.824 34.72 3.312 33.616C4.8 32.512 6.736 31.96 9.12 31.96C12.24 31.96 14.536 32.84 16.008 34.6C16.808 35.544 17.208 36.712 17.208 38.104C17.208 38.248 17.152 38.376 17.04 38.488C16.944 38.584 16.824 38.632 16.68 38.632H11.784C11.528 38.632 11.336 38.584 11.208 38.488C11.096 38.392 10.992 38.208 10.896 37.936C10.592 37.072 9.992 36.64 9.096 36.64C7.912 36.64 7.32 37.288 7.32 38.584ZM18.7697 45.424C18.7697 43.264 20.5217 41.88 24.0257 41.272L26.5697 40.864C26.5697 40.384 26.5297 40.064 26.4497 39.904C26.3697 39.728 26.1777 39.64 25.8737 39.64C25.5857 39.64 25.2977 39.768 25.0097 40.024C24.7217 40.28 24.4497 40.408 24.1937 40.408H20.1137C19.7617 40.408 19.5857 40.24 19.5857 39.904C19.5857 39.552 19.7057 39.184 19.9457 38.8C20.2017 38.4 20.5617 38.008 21.0257 37.624C21.5057 37.24 22.1697 36.92 23.0177 36.664C23.8817 36.408 24.8417 36.28 25.8977 36.28C28.0417 36.28 29.6497 36.728 30.7217 37.624C31.7937 38.52 32.3297 39.8 32.3297 41.464V48.352C32.3297 48.528 32.2657 48.68 32.1377 48.808C32.0097 48.936 31.8577 49 31.6817 49H27.4817C27.3057 49 27.1537 48.936 27.0257 48.808C26.8977 48.68 26.8337 48.528 26.8337 48.352V47.68C26.0817 48.72 24.9857 49.24 23.5457 49.24C22.1057 49.24 20.9457 48.88 20.0657 48.16C19.2017 47.424 18.7697 46.512 18.7697 45.424ZM25.0817 45.688C26.1217 45.688 26.6417 45.064 26.6417 43.816L25.2257 44.128C24.5217 44.288 24.1697 44.584 24.1697 45.016C24.1697 45.208 24.2497 45.368 24.4097 45.496C24.5697 45.624 24.7937 45.688 25.0817 45.688ZM48.6144 41.824V43.72C48.6144 45.512 48.1344 46.88 47.1744 47.824C46.2144 48.768 45.0384 49.24 43.6464 49.24C42.2704 49.24 41.1664 48.864 40.3344 48.112V52.912C40.3344 53.088 40.2704 53.24 40.1424 53.368C40.0144 53.496 39.8624 53.56 39.6864 53.56H35.2464C35.0704 53.56 34.9184 53.496 34.7904 53.368C34.6624 53.24 34.5984 53.088 34.5984 52.912V37.168C34.5984 36.992 34.6624 36.84 34.7904 36.712C34.9184 36.584 35.0704 36.52 35.2464 36.52H39.3264C39.5024 36.52 39.6544 36.584 39.7824 36.712C39.9104 36.84 39.9744 36.992 39.9744 37.168V37.888C40.8064 36.816 41.9824 36.28 43.5024 36.28C45.0224 36.28 46.2544 36.736 47.1984 37.648C48.1424 38.544 48.6144 39.936 48.6144 41.824ZM40.3344 41.968V43.744C40.3824 44.544 40.7824 44.944 41.5344 44.944C42.3344 44.944 42.7344 44.48 42.7344 43.552V41.968C42.7344 41.04 42.3344 40.576 41.5344 40.576C40.7344 40.576 40.3344 41.04 40.3344 41.968ZM55.5971 49H51.3011C51.1251 49 50.9731 48.936 50.8451 48.808C50.7171 48.68 50.6531 48.528 50.6531 48.352V37.168C50.6531 36.992 50.7171 36.84 50.8451 36.712C50.9731 36.584 51.1251 36.52 51.3011 36.52H55.5971C55.7731 36.52 55.9251 36.584 56.0531 36.712C56.1811 36.84 56.2451 36.992 56.2451 37.168V48.352C56.2451 48.528 56.1811 48.68 56.0531 48.808C55.9251 48.936 55.7731 49 55.5971 49ZM56.1251 31.888V34.792C56.1251 34.968 56.0611 35.12 55.9331 35.248C55.8051 35.376 55.6531 35.44 55.4771 35.44H51.4211C51.2451 35.44 51.0931 35.376 50.9651 35.248C50.8371 35.12 50.7731 34.968 50.7731 34.792V31.888C50.7731 31.712 50.8371 31.56 50.9651 31.432C51.0931 31.304 51.2451 31.24 51.4211 31.24H55.4771C55.6531 31.24 55.8051 31.304 55.9331 31.432C56.0611 31.56 56.1251 31.712 56.1251 31.888ZM72.5173 48.112C72.5813 48.192 72.6133 48.304 72.6133 48.448C72.6133 48.592 72.5573 48.72 72.4453 48.832C72.3333 48.944 72.1973 49 72.0373 49H67.4293C67.1413 49 66.9013 48.864 66.7093 48.592L65.1253 46.264L63.4693 48.592C63.2933 48.864 63.0533 49 62.7493 49H58.2613C58.1013 49 57.9653 48.944 57.8533 48.832C57.7413 48.72 57.6853 48.592 57.6853 48.448C57.6853 48.304 57.7173 48.192 57.7813 48.112L61.6693 42.568L58.2133 37.408C58.1493 37.312 58.1173 37.2 58.1173 37.072C58.1173 36.928 58.1733 36.8 58.2853 36.688C58.3973 36.576 58.5333 36.52 58.6933 36.52H63.0853C63.3893 36.52 63.6453 36.672 63.8533 36.976L65.2453 39.112L66.6373 36.976C66.8453 36.672 67.1013 36.52 67.4053 36.52H71.6053C71.7653 36.52 71.9013 36.576 72.0133 36.688C72.1253 36.8 72.1813 36.928 72.1813 37.072C72.1813 37.2 72.1493 37.312 72.0853 37.408L68.5573 42.544L72.5173 48.112ZM73.6838 45.424C73.6838 43.264 75.4358 41.88 78.9398 41.272L81.4838 40.864C81.4838 40.384 81.4438 40.064 81.3638 39.904C81.2838 39.728 81.0918 39.64 80.7878 39.64C80.4998 39.64 80.2118 39.768 79.9238 40.024C79.6358 40.28 79.3638 40.408 79.1078 40.408H75.0278C74.6758 40.408 74.4998 40.24 74.4998 39.904C74.4998 39.552 74.6198 39.184 74.8598 38.8C75.1158 38.4 75.4758 38.008 75.9398 37.624C76.4198 37.24 77.0838 36.92 77.9318 36.664C78.7958 36.408 79.7558 36.28 80.8118 36.28C82.9558 36.28 84.5638 36.728 85.6358 37.624C86.7078 38.52 87.2438 39.8 87.2438 41.464V48.352C87.2438 48.528 87.1798 48.68 87.0518 48.808C86.9238 48.936 86.7718 49 86.5958 49H82.3958C82.2198 49 82.0678 48.936 81.9398 48.808C81.8118 48.68 81.7478 48.528 81.7478 48.352V47.68C80.9958 48.72 79.8998 49.24 78.4598 49.24C77.0198 49.24 75.8598 48.88 74.9798 48.16C74.1158 47.424 73.6838 46.512 73.6838 45.424ZM79.9958 45.688C81.0358 45.688 81.5558 45.064 81.5558 43.816L80.1398 44.128C79.4358 44.288 79.0838 44.584 79.0838 45.016C79.0838 45.208 79.1638 45.368 79.3238 45.496C79.4838 45.624 79.7078 45.688 79.9958 45.688ZM103.529 41.8V43.696C103.529 45.584 103.057 46.984 102.113 47.896C101.169 48.792 99.9365 49.24 98.4165 49.24C96.8965 49.24 95.7205 48.704 94.8885 47.632V48.352C94.8885 48.528 94.8245 48.68 94.6965 48.808C94.5685 48.936 94.4165 49 94.2405 49H90.1605C89.9845 49 89.8325 48.936 89.7045 48.808C89.5765 48.68 89.5125 48.528 89.5125 48.352V32.608C89.5125 32.432 89.5765 32.28 89.7045 32.152C89.8325 32.024 89.9845 31.96 90.1605 31.96H94.6005C94.7765 31.96 94.9285 32.024 95.0565 32.152C95.1845 32.28 95.2485 32.432 95.2485 32.608V37.408C96.0805 36.656 97.1845 36.28 98.5605 36.28C99.9525 36.28 101.128 36.752 102.089 37.696C103.049 38.64 103.529 40.008 103.529 41.8ZM95.2485 43.552C95.2485 44.48 95.6485 44.944 96.4485 44.944C97.2485 44.944 97.6485 44.48 97.6485 43.552V41.968C97.6485 41.04 97.2485 40.576 96.4485 40.576C95.6965 40.576 95.2965 40.976 95.2485 41.776V43.552ZM105.207 45.424C105.207 43.264 106.959 41.88 110.463 41.272L113.007 40.864C113.007 40.384 112.967 40.064 112.887 39.904C112.807 39.728 112.615 39.64 112.311 39.64C112.023 39.64 111.735 39.768 111.447 40.024C111.159 40.28 110.887 40.408 110.631 40.408H106.551C106.199 40.408 106.023 40.24 106.023 39.904C106.023 39.552 106.143 39.184 106.383 38.8C106.639 38.4 106.999 38.008 107.463 37.624C107.943 37.24 108.607 36.92 109.455 36.664C110.319 36.408 111.279 36.28 112.335 36.28C114.479 36.28 116.087 36.728 117.159 37.624C118.231 38.52 118.767 39.8 118.767 41.464V48.352C118.767 48.528 118.703 48.68 118.575 48.808C118.447 48.936 118.295 49 118.119 49H113.919C113.743 49 113.591 48.936 113.463 48.808C113.335 48.68 113.271 48.528 113.271 48.352V47.68C112.519 48.72 111.423 49.24 109.983 49.24C108.543 49.24 107.383 48.88 106.503 48.16C105.639 47.424 105.207 46.512 105.207 45.424ZM111.519 45.688C112.559 45.688 113.079 45.064 113.079 43.816L111.663 44.128C110.959 44.288 110.607 44.584 110.607 45.016C110.607 45.208 110.687 45.368 110.847 45.496C111.007 45.624 111.231 45.688 111.519 45.688Z" fill="black"/>
<path d="M51.608 9.152V12.44H47.144V26H43.04V12.44H38.576V9.152H51.608ZM68.2597 9.152V26H64.1557V19.064H57.7717V26H53.6677V9.152H57.7717V15.752H64.1557V9.152H68.2597ZM75.3264 12.44V15.848H80.8224V19.016H75.3264V22.712H81.5424V26H71.2224V9.152H81.5424V12.44H75.3264Z" fill="#571515"/>
</svg>
