<svg width="22" height="20" viewBox="0 0 22 20" fill="none" xmlns="http://www.w3.org/2000/svg">
<path d="M11 0C4.95019 0 0 4.36168 0 9.69224C0 15.0228 4.95019 19.3845 11 19.3845C17.0498 19.3845 22 15.0228 22 9.69224C22 4.36168 17.0498 0 11 0ZM14.9047 13.3758L10.4165 10.9426C10.2549 10.8576 10.1213 10.7368 10.0287 10.5925C9.9361 10.448 9.88778 10.285 9.88851 10.1191V5.57249C9.89431 5.37949 9.9847 5.19598 10.1407 5.06044C10.2968 4.9249 10.5063 4.84788 10.7254 4.84554C10.9437 4.84706 11.1526 4.92414 11.3069 5.06015C11.4612 5.19614 11.5488 5.38017 11.5505 5.57249V9.88533L15.7746 12.1243C16.1706 12.3383 16.3027 12.7931 16.0598 13.1432C15.9403 13.3077 15.7523 13.4243 15.5362 13.4678C15.3201 13.5113 15.0934 13.4783 14.9047 13.3758Z" fill="url(#paint0_linear_37_13)"/>
<defs>
<linearGradient id="paint0_linear_37_13" x1="11" y1="0" x2="11" y2="19.3845" gradientUnits="userSpaceOnUse">
<stop stop-color="#FFBF00"/>
<stop offset="1" stop-color="#F2A50C"/>
</linearGradient>
</defs>
</svg>
